<svg xmlns="http://www.w3.org/2000/svg" version="1.1" xmlns:xlink="http://www.w3.org/1999/xlink" xmlns:svgjs="http://svgjs.dev/svgjs" width="2000" height="227" viewBox="0 0 2000 227"><g transform="matrix(1,0,0,1,-1.2121212121212466,0.25559828078995395)"><svg viewBox="0 0 396 45" data-background-color="#162836" preserveAspectRatio="xMidYMid meet" height="227" width="2000" xmlns="http://www.w3.org/2000/svg" xmlns:xlink="http://www.w3.org/1999/xlink"><g id="tight-bounds" transform="matrix(1,0,0,1,0.2400000000000091,-0.05066926271166494)"><svg viewBox="0 0 395.52 45.10133852542332" height="45.10133852542332" width="395.52"><g><svg viewBox="0 0 543.1327921817024 61.93369721997713" height="45.10133852542332" width="395.52"><g><rect width="4.041421657650556" height="45.03861483797178" x="406.09963784725267" y="8.447541191002674" fill="#cf7650" opacity="1" stroke-width="0" stroke="transparent" fill-opacity="1" class="rect-qz-0" data-fill-palette-color="primary" rx="1%" id="qz-0" data-palette-color="#cf7650"></rect></g><g transform="matrix(1,0,0,1,0,8.559577546321009)"><svg viewBox="0 0 395.5199999999999 44.81454212733511" height="44.81454212733511" width="395.5199999999999"><g id="textblocktransform"><svg viewBox="0 0 395.5199999999999 44.81454212733511" height="44.81454212733511" width="395.5199999999999" id="textblock"><g><svg viewBox="0 0 395.5199999999999 44.81454212733511" height="44.81454212733511" width="395.5199999999999"><g transform="matrix(1,0,0,1,0,0)"><svg width="395.5199999999999" viewBox="0.37 -35.64 320.89 36.27" height="44.81454212733511" data-palette-color="#cf7650"><g class="wordmark-text-0" data-fill-palette-color="primary" id="text-0"><path d="M24.54-33.35L24.54-33.35 23.66-23.05Q22.95-23.24 22.27-23.32 21.58-23.39 20.87-23.39L20.87-23.39Q19.14-23.39 17.57-22.95 15.99-22.51 14.78-21.61 13.57-20.7 12.85-19.32 12.13-17.94 12.13-16.06L12.13-16.06Q12.13-14.7 12.54-13.68 12.94-12.67 13.68-12 14.43-11.33 15.49-10.99 16.55-10.64 17.85-10.64L17.85-10.64Q18.75-10.64 19.7-10.83 20.65-11.01 21.61-11.33 22.56-11.65 23.44-12.06 24.32-12.48 25.07-12.94L25.07-12.94 24.68-1.46Q23.73-0.98 22.63-0.6 21.53-0.22 20.37 0.06 19.21 0.34 18.05 0.49 16.89 0.63 15.84 0.63L15.84 0.63Q12.38 0.63 9.53-0.66 6.69-1.95 4.65-4.19 2.61-6.42 1.49-9.38 0.37-12.33 0.37-15.67L0.37-15.67Q0.37-19.68 1.5-23.14 2.64-26.61 4.85-29.16 7.06-31.71 10.31-33.17 13.57-34.62 17.8-34.62L17.8-34.62Q19.48-34.62 21.22-34.35 22.95-34.08 24.54-33.35ZM38.38-12.94L48.29-12.94 47.26-2.1 26.71-0.49 27.49-35.35 40.18-35.35 38.38-12.94ZM78.54-34.38L78.54-34.38Q77.44-25.78 76.66-17.27 75.87-8.76 75.17-0.15L75.17-0.15 65.16 0.59 65.6-3.17Q65.11-2.61 64.46-2.2 63.81-1.78 63.08-1.53 62.35-1.27 61.57-1.16 60.79-1.05 60.08-1.07L60.08-1.07Q58.42-1.1 56.95-1.72 55.49-2.34 54.27-3.38 53.05-4.42 52.07-5.8 51.09-7.18 50.42-8.7 49.75-10.23 49.4-11.82 49.04-13.4 49.04-14.89L49.04-14.89Q49.04-17.09 49.13-19.45 49.21-21.8 49.43-24.17 49.65-26.54 50.01-28.86 50.36-31.18 50.9-33.3L50.9-33.3Q53.88-33.15 56.88-33.03 59.88-32.91 62.86-32.96L62.86-32.96Q62.3-30.83 61.75-28.7 61.2-26.56 60.76-24.4 60.32-22.24 60.05-20.07 59.79-17.9 59.79-15.67L59.79-15.67Q59.79-15.16 59.83-14.21 59.88-13.26 60.09-12.33 60.3-11.4 60.72-10.71 61.15-10.01 61.93-10.01L61.93-10.01Q62.86-10.01 63.59-10.8 64.33-11.6 64.89-12.94 65.45-14.28 65.85-16.04 66.25-17.8 66.54-19.71 66.82-21.63 66.99-23.58 67.16-25.54 67.24-27.26 67.33-28.98 67.37-30.35 67.4-31.71 67.4-32.47L67.4-32.47Q67.4-32.96 67.38-33.42 67.35-33.89 67.3-34.38L67.3-34.38Q68.89-34.33 70.45-34.3 72.02-34.28 73.6-34.28L73.6-34.28Q74.82-34.28 76.06-34.29 77.29-34.3 78.54-34.38ZM107.24-19.73L107.24-19.73Q107.24-17.6 106.95-15.48L106.95-15.48Q102.78-15.21 98.65-14.61 94.52-14.01 90.4-13.43L90.4-13.43Q91.03-11.67 92.39-10.62 93.74-9.57 95.62-9.57L95.62-9.57Q96.6-9.57 97.76-9.94 98.92-10.3 100.07-10.85 101.21-11.4 102.26-12.04 103.31-12.67 104.07-13.18L104.07-13.18 102.9-2.1Q101.95-1.37 100.83-0.85 99.72-0.34 98.53-0.02 97.33 0.29 96.11 0.44 94.89 0.59 93.72 0.59L93.72 0.59Q91.3 0.59 89.3-0.07 87.3-0.73 85.67-1.92 84.05-3.1 82.83-4.71 81.61-6.32 80.8-8.23 80-10.13 79.58-12.26 79.17-14.38 79.17-16.55L79.17-16.55Q79.17-18.82 79.58-21.09 80-23.36 80.84-25.46 81.68-27.56 82.96-29.36 84.25-31.15 85.95-32.5 87.66-33.84 89.82-34.59 91.98-35.35 94.6-35.35L94.6-35.35Q96.77-35.35 98.56-34.75 100.36-34.16 101.76-33.09 103.17-32.03 104.2-30.57 105.24-29.1 105.91-27.36 106.58-25.61 106.91-23.67 107.24-21.73 107.24-19.73ZM97.48-20.46L97.48-21Q97.48-21.68 97.33-22.4 97.18-23.12 96.86-23.71 96.53-24.29 95.99-24.67 95.45-25.05 94.65-25.05L94.65-25.05Q93.67-25.05 92.92-24.52 92.18-24 91.64-23.21 91.11-22.41 90.76-21.48 90.42-20.56 90.25-19.78L90.25-19.78 97.48-20.46Z" fill="#cf7650" data-fill-palette-color="primary"></path><path d="M141.54-33.35L141.54-33.35 140.66-23.05Q139.95-23.24 139.27-23.32 138.59-23.39 137.88-23.39L137.88-23.39Q136.14-23.39 134.57-22.95 132.99-22.51 131.79-21.61 130.58-20.7 129.86-19.32 129.14-17.94 129.14-16.06L129.14-16.06Q129.14-14.7 129.54-13.68 129.94-12.67 130.69-12 131.43-11.33 132.49-10.99 133.56-10.64 134.85-10.64L134.85-10.64Q135.75-10.64 136.71-10.83 137.66-11.01 138.61-11.33 139.56-11.65 140.44-12.06 141.32-12.48 142.08-12.94L142.08-12.94 141.69-1.46Q140.73-0.98 139.63-0.6 138.54-0.22 137.38 0.06 136.22 0.34 135.06 0.49 133.9 0.63 132.85 0.63L132.85 0.63Q129.38 0.63 126.54-0.66 123.69-1.95 121.65-4.19 119.62-6.42 118.49-9.38 117.37-12.33 117.37-15.67L117.37-15.67Q117.37-19.68 118.5-23.14 119.64-26.61 121.85-29.16 124.06-31.71 127.32-33.17 130.58-34.62 134.8-34.62L134.8-34.62Q136.49-34.62 138.22-34.35 139.95-34.08 141.54-33.35ZM174.06-18.7L174.06-18.7Q174.06-16.48 173.54-14.42 173.03-12.35 172.07-10.55 171.1-8.74 169.72-7.24 168.34-5.74 166.62-4.66 164.9-3.59 162.87-2.99 160.85-2.39 158.58-2.39L158.58-2.39Q156.38-2.39 154.39-2.95 152.4-3.52 150.67-4.53 148.93-5.54 147.53-6.97 146.13-8.4 145.14-10.14 144.15-11.89 143.6-13.89 143.05-15.89 143.05-18.07L143.05-18.07Q143.05-20.19 143.56-22.23 144.08-24.27 145.04-26.07 146-27.88 147.37-29.39 148.74-30.91 150.44-32.01 152.13-33.11 154.11-33.72 156.09-34.33 158.28-34.33L158.28-34.33Q161.82-34.33 164.74-33.23 167.66-32.13 169.72-30.09 171.79-28.05 172.92-25.16 174.06-22.27 174.06-18.7ZM163.22-18.07L163.22-18.07Q163.22-19.12 162.91-20.1 162.61-21.09 162.02-21.86 161.43-22.63 160.57-23.11 159.7-23.58 158.58-23.58L158.58-23.58Q157.43-23.58 156.53-23.17 155.62-22.75 154.98-22.03 154.33-21.31 153.99-20.35 153.65-19.38 153.65-18.31L153.65-18.31Q153.65-17.29 153.94-16.26 154.23-15.23 154.82-14.4 155.4-13.57 156.27-13.06 157.14-12.55 158.28-12.55L158.28-12.55Q159.43-12.55 160.35-13 161.26-13.45 161.9-14.22 162.53-14.99 162.87-15.99 163.22-16.99 163.22-18.07ZM206.06-12.35L206.06-12.35Q206.06-9.59 206-6.9 205.94-4.2 205.82-1.46L205.82-1.46 191.75-1.71Q192.49-6.03 193.02-10.34 193.56-14.65 193.56-19.04L193.56-19.04Q193.56-19.36 193.54-20.07 193.51-20.78 193.44-21.67 193.37-22.56 193.23-23.5 193.1-24.44 192.86-25.22 192.63-26 192.3-26.5 191.97-27 191.51-27L191.51-27Q190.68-27 190.11-26.51 189.53-26.03 189.15-25.26 188.78-24.49 188.56-23.54 188.34-22.58 188.23-21.63 188.12-20.68 188.08-19.84 188.04-18.99 188.04-18.46L188.04-18.46Q187.92-14.14 187.85-9.88 187.77-5.62 187.65-1.27L187.65-1.27 175.2-0.73Q175.69-9.35 176.14-17.87 176.59-26.39 176.86-35.01L176.86-35.01 188.38-35.6 188.29-31.69Q188.97-32.52 189.76-33.25 190.56-33.98 191.46-34.51 192.36-35.03 193.38-35.34 194.39-35.64 195.51-35.64L195.51-35.64Q197.59-35.64 199.15-34.96 200.71-34.28 201.84-33.11 202.96-31.93 203.72-30.33 204.47-28.74 204.94-26.93 205.4-25.12 205.65-23.16 205.89-21.19 205.98-19.29 206.06-17.38 206.06-15.6 206.06-13.82 206.06-12.35ZM238.65-12.35L238.65-12.35Q238.65-9.59 238.59-6.9 238.53-4.2 238.41-1.46L238.41-1.46 224.34-1.71Q225.08-6.03 225.61-10.34 226.15-14.65 226.15-19.04L226.15-19.04Q226.15-19.36 226.13-20.07 226.1-20.78 226.03-21.67 225.96-22.56 225.82-23.5 225.69-24.44 225.46-25.22 225.22-26 224.89-26.5 224.56-27 224.1-27L224.1-27Q223.27-27 222.7-26.51 222.12-26.03 221.74-25.26 221.37-24.49 221.15-23.54 220.93-22.58 220.82-21.63 220.71-20.68 220.67-19.84 220.63-18.99 220.63-18.46L220.63-18.46Q220.51-14.14 220.44-9.88 220.36-5.62 220.24-1.27L220.24-1.27 207.79-0.73Q208.28-9.35 208.73-17.87 209.18-26.39 209.45-35.01L209.45-35.01 220.98-35.6 220.88-31.69Q221.56-32.52 222.35-33.25 223.15-33.98 224.05-34.51 224.95-35.03 225.97-35.34 226.98-35.64 228.1-35.64L228.1-35.64Q230.18-35.64 231.74-34.96 233.3-34.28 234.43-33.11 235.55-31.93 236.31-30.33 237.06-28.74 237.53-26.93 237.99-25.12 238.24-23.16 238.48-21.19 238.57-19.29 238.65-17.38 238.65-15.6 238.65-13.82 238.65-12.35ZM268.19-19.73L268.19-19.73Q268.19-17.6 267.9-15.48L267.9-15.48Q263.72-15.21 259.6-14.61 255.47-14.01 251.34-13.43L251.34-13.43Q251.98-11.67 253.33-10.62 254.69-9.57 256.57-9.57L256.57-9.57Q257.54-9.57 258.7-9.94 259.86-10.3 261.01-10.85 262.16-11.4 263.21-12.04 264.26-12.67 265.02-13.18L265.02-13.18 263.84-2.1Q262.89-1.37 261.78-0.85 260.67-0.34 259.47-0.02 258.28 0.29 257.06 0.44 255.84 0.59 254.66 0.59L254.66 0.59Q252.25 0.59 250.25-0.07 248.24-0.73 246.62-1.92 245-3.1 243.78-4.71 242.55-6.32 241.75-8.23 240.94-10.13 240.53-12.26 240.11-14.38 240.11-16.55L240.11-16.55Q240.11-18.82 240.53-21.09 240.94-23.36 241.79-25.46 242.63-27.56 243.91-29.36 245.19-31.15 246.9-32.5 248.61-33.84 250.77-34.59 252.93-35.35 255.54-35.35L255.54-35.35Q257.72-35.35 259.51-34.75 261.3-34.16 262.71-33.09 264.11-32.03 265.15-30.57 266.19-29.1 266.86-27.36 267.53-25.61 267.86-23.67 268.19-21.73 268.19-19.73ZM258.42-20.46L258.42-21Q258.42-21.68 258.28-22.4 258.13-23.12 257.8-23.71 257.47-24.29 256.93-24.67 256.4-25.05 255.59-25.05L255.59-25.05Q254.62-25.05 253.87-24.52 253.13-24 252.59-23.21 252.05-22.41 251.71-21.48 251.37-20.56 251.2-19.78L251.2-19.78 258.42-20.46ZM293.06-33.35L293.06-33.35 292.19-23.05Q291.48-23.24 290.79-23.32 290.11-23.39 289.4-23.39L289.4-23.39Q287.67-23.39 286.09-22.95 284.52-22.51 283.31-21.61 282.1-20.7 281.38-19.32 280.66-17.94 280.66-16.06L280.66-16.06Q280.66-14.7 281.07-13.68 281.47-12.67 282.21-12 282.96-11.33 284.02-10.99 285.08-10.64 286.38-10.64L286.38-10.64Q287.28-10.64 288.23-10.83 289.18-11.01 290.14-11.33 291.09-11.65 291.97-12.06 292.85-12.48 293.6-12.94L293.6-12.94 293.21-1.46Q292.26-0.98 291.16-0.6 290.06-0.22 288.9 0.06 287.74 0.34 286.58 0.49 285.42 0.63 284.37 0.63L284.37 0.63Q280.91 0.63 278.06-0.66 275.22-1.95 273.18-4.19 271.14-6.42 270.02-9.38 268.89-12.33 268.89-15.67L268.89-15.67Q268.89-19.68 270.03-23.14 271.17-26.61 273.37-29.16 275.58-31.71 278.84-33.17 282.1-34.62 286.33-34.62L286.33-34.62Q288.01-34.62 289.74-34.35 291.48-34.08 293.06-33.35ZM294.65-34.38L321.26-34.42 321.02-24.07 313.74-23.78 312.86-1.12 302.56-0.59 301.63-23.24 294.36-22.85 294.65-34.38Z" fill="#d5a187" data-fill-palette-color="accent"></path></g></svg></g></svg></g></svg></g></svg></g><g transform="matrix(1,0,0,1,420.720697352156,0)"><svg viewBox="0 0 122.41209482954639 61.93369721997713" height="61.93369721997713" width="122.41209482954639"><g><svg xmlns="http://www.w3.org/2000/svg" xmlns:xlink="http://www.w3.org/1999/xlink" version="1.1" x="0" y="0" viewBox="0.4980000000000011 0.955 99.0030000668874 50.09" enable-background="new 0 0 100 52" xml:space="preserve" height="61.93369721997713" width="122.41209482954639" class="icon-icon-0" data-fill-palette-color="accent" id="icon-0"><path fill="none" d="M47.807 33.138c0.008-0.009 0.016-0.019 0.024-0.026-0.009 0.007-0.018 0.015-0.026 0.023C47.805 33.136 47.806 33.137 47.807 33.138z"></path><path fill="none" d="M53.048 49.8c-0.274-0.071-0.545-0.152-0.815-0.232-0.002 0.001-0.005 0.003-0.007 0.003C52.485 49.648 52.76 49.726 53.048 49.8z"></path><path fill="none" d="M36.33 35.501h-0.004c0.204 0.522 0.496 1.114 0.783 1.651h0.013C36.838 36.612 36.574 36.062 36.33 35.501z"></path><path fill="#d5a187" d="M37.108 37.152c0.291 0.544 0.577 1.029 0.758 1.332-0.263-0.436-0.508-0.882-0.746-1.332H37.108z" data-fill-palette-color="accent"></path><path fill="#d5a187" d="M38.062 38.804h0.006c-0.048-0.079-0.1-0.152-0.147-0.231C38.008 38.717 38.062 38.804 38.062 38.804z" data-fill-palette-color="accent"></path><path fill="#d5a187" d="M51.812 49.445c-0.631-0.197-1.249-0.424-1.856-0.669-0.003 0.002-0.007 0.003-0.009 0.004C50.007 48.805 50.728 49.104 51.812 49.445z" data-fill-palette-color="accent"></path><path fill="#d5a187" d="M52.226 49.57c0.002 0 0.005-0.002 0.007-0.003-0.106-0.03-0.213-0.057-0.318-0.091C52.016 49.509 52.12 49.541 52.226 49.57z" data-fill-palette-color="accent"></path><path fill="#d5a187" d="M74.458 0.955H59.321c-1.307 0-2.591 0.1-3.845 0.293-0.273 0.042-0.541 0.101-0.811 0.151 4.646 2.666 8.469 6.605 10.987 11.343h1.238 8.346c7.322 0 13.257 5.937 13.257 13.259 0 7.321-5.936 13.258-13.257 13.258h-9.516-1.958-1.905-0.006-3.171c-3.305 0-6.324-1.212-8.646-3.212 0 0-0.003 0.003-0.003 0.003 0-0.002-0.001-0.002-0.002-0.003-0.494-0.414-0.886-0.802-1.206-1.148-0.7-0.764-1.011-1.303-1.011-1.303 0.001-0.002 0.002-0.002 0.002-0.003-0.001-0.001-0.002-0.002-0.002-0.003-1.505-2.15-2.389-4.766-2.389-7.589 0-2.746 0.834-5.296 2.263-7.413 0.041-0.06 0.086-0.117 0.127-0.176-1.736-1.473-3.978-2.367-6.429-2.367h-5.041c-1.325 3.052-2.067 6.416-2.067 9.956 0 3.538 0.737 6.903 2.061 9.955 0.244 0.561 0.509 1.111 0.792 1.651 0.237 0.45 0.482 0.896 0.746 1.332 0.02 0.033 0.036 0.059 0.054 0.088 0.047 0.079 0.099 0.152 0.147 0.231 2.792 4.463 6.948 7.98 11.888 9.973 0.608 0.245 1.226 0.472 1.856 0.669 0.034 0.011 0.068 0.022 0.103 0.031 0.105 0.034 0.212 0.061 0.318 0.091 0.27 0.08 0.541 0.161 0.815 0.232 0.004 0 0.006 0.002 0.01 0.003 2 0.513 4.096 0.787 6.254 0.787h15.137c13.832 0 25.044-11.213 25.044-25.044C99.502 12.169 88.29 0.955 74.458 0.955z" data-fill-palette-color="accent"></path><path fill="#d5a187" d="M25.542 51.045h15.137c1.308 0 2.592-0.101 3.846-0.294 0.273-0.042 0.542-0.1 0.811-0.151-4.646-2.665-8.47-6.604-10.987-11.342H33.11h-8.346c-7.322 0-13.257-5.936-13.257-13.259 0-7.322 5.935-13.257 13.257-13.257h9.516 1.957 1.905 0.007 3.17c3.304 0 6.323 1.212 8.645 3.212l0.002-0.003c0.001 0.001 0.001 0.002 0.002 0.003 0.495 0.413 0.887 0.801 1.206 1.148 0.701 0.762 1.011 1.302 1.011 1.302 0 0.001-0.001 0.002-0.002 0.003 0.001 0 0.002 0.001 0.003 0.003 1.505 2.15 2.39 4.766 2.39 7.588 0 2.746-0.835 5.297-2.264 7.412-0.041 0.062-0.085 0.118-0.127 0.176 1.736 1.474 3.979 2.369 6.429 2.369h5.042c1.324-3.053 2.065-6.417 2.065-9.957 0-3.539-0.737-6.903-2.061-9.955-0.244-0.561-0.509-1.111-0.792-1.651-0.237-0.451-0.482-0.898-0.746-1.332-0.02-0.033-0.036-0.06-0.053-0.089-0.048-0.078-0.099-0.153-0.147-0.23-2.792-4.463-6.949-7.981-11.888-9.973-0.608-0.245-1.226-0.471-1.856-0.67-0.034-0.011-0.068-0.021-0.103-0.032-0.105-0.032-0.212-0.059-0.318-0.089-0.27-0.081-0.541-0.162-0.816-0.232-0.004-0.001-0.006-0.001-0.009-0.002-2-0.515-4.095-0.788-6.255-0.788H25.542c-13.832 0-25.044 11.212-25.044 25.044C0.498 39.832 11.71 51.045 25.542 51.045z" data-fill-palette-color="accent"></path><path fill="#d5a187" d="M53.058 49.803c-0.003-0.001-0.006-0.003-0.01-0.003C53.052 49.8 53.055 49.802 53.058 49.803z" data-fill-palette-color="accent"></path><path fill="#d5a187" d="M51.812 49.445c0.034 0.011 0.068 0.022 0.103 0.031C51.881 49.468 51.847 49.456 51.812 49.445z" data-fill-palette-color="accent"></path><path fill="#d5a187" d="M47.805 33.141c0 0 0.311 0.539 1.011 1.303 0.005-0.006 0.01-0.012 0.016-0.015-0.369-0.407-0.709-0.84-1.025-1.291C47.807 33.139 47.806 33.139 47.805 33.141z" data-fill-palette-color="accent"></path><path fill="#d5a187" d="M37.92 38.572c-0.018-0.029-0.034-0.055-0.054-0.088C37.885 38.514 37.902 38.542 37.92 38.572z" data-fill-palette-color="accent"></path><path fill="#d5a187" d="M48.832 34.429c-0.006 0.003-0.011 0.009-0.016 0.015 0.319 0.347 0.711 0.734 1.206 1.148 0.001-0.002 0.002-0.003 0.002-0.003C49.604 35.227 49.204 34.84 48.832 34.429z" data-fill-palette-color="accent"></path><path fill="#d5a187" d="M50.027 35.592c0.001-0.003 0.004-0.006 0.012-0.015-0.004 0.004-0.01 0.008-0.015 0.012C50.025 35.589 50.026 35.59 50.027 35.592z" data-fill-palette-color="accent"></path><rect x="50.022" y="35.59" fill="#d5a187" width="0.004" height="0.004" data-fill-palette-color="accent"></rect></svg></g></svg></g></svg></g><defs></defs></svg><rect width="395.52" height="45.10133852542332" fill="none" stroke="none" visibility="hidden"></rect></g></svg></g></svg>